<svg width="24" height="24" viewBox="0 0 24 24" fill="none" xmlns="http://www.w3.org/2000/svg">
<path fill-rule="evenodd" clip-rule="evenodd" d="M4.7177 3.09212C5.94388 1.80118 7.9721 2.04304 8.98569 3.47662L10.2467 5.26011C11.0574 6.40677 10.9889 8.00094 10.0214 9.01962L9.7765 9.2774C9.77582 9.27918 9.7751 9.28112 9.77436 9.2832C9.76142 9.31956 9.7287 9.43535 9.7609 9.6551C9.82765 10.1106 10.1793 11.0363 11.607 12.5394C13.0391 14.0472 13.9078 14.4025 14.3103 14.4679C14.484 14.4961 14.5748 14.4716 14.6038 14.4614L15.0124 14.0312C15.8862 13.1113 17.2485 12.93 18.347 13.5623L20.2575 14.662C21.8904 15.6018 22.2705 17.901 20.9655 19.2749L19.545 20.7705C19.1016 21.2373 18.497 21.6357 17.75 21.7095C15.9261 21.8895 11.701 21.655 7.27161 16.9917C3.13844 12.6402 2.35326 8.85535 2.25401 7.00612L2.92011 6.97037L2.25401 7.00612C2.20497 6.09245 2.61224 5.30876 3.1481 4.74461L4.7177 3.09212ZM7.7609 4.34259C7.24855 3.61794 6.32812 3.5747 5.80528 4.12515L4.23568 5.77764C3.90429 6.12653 3.73042 6.52643 3.75185 6.92573C3.83289 8.43555 4.48307 11.8778 8.35919 15.9587C12.4234 20.2375 16.1676 20.3584 17.6026 20.2167C17.8864 20.1887 18.1783 20.0313 18.4574 19.7375L19.8779 18.2419C20.4907 17.5968 20.3301 16.4345 19.5092 15.962L17.5987 14.8623C17.086 14.5672 16.4854 14.6584 16.1 15.0642L15.6445 15.5437L15.1174 15.043C15.6445 15.5437 15.6438 15.5444 15.6432 15.5452L15.6417 15.5467L15.6388 15.5497L15.6324 15.5562L15.6181 15.5703C15.6078 15.5803 15.5959 15.5913 15.5825 15.603C15.5556 15.6266 15.5223 15.6535 15.4824 15.6818C15.4022 15.7387 15.2955 15.8011 15.1606 15.8544C14.8846 15.9632 14.5201 16.0216 14.0699 15.9485C13.1923 15.806 12.0422 15.1757 10.5194 13.5724C8.99202 11.9644 8.40746 10.7647 8.27675 9.87256C8.21022 9.41849 8.26346 9.05489 8.36116 8.78032C8.40921 8.6453 8.46594 8.53763 8.51826 8.45587C8.54435 8.41511 8.56922 8.38097 8.5912 8.35319C8.60219 8.3393 8.61246 8.327 8.62182 8.31624L8.63514 8.30126L8.64125 8.29462L8.64415 8.29151L8.64556 8.29001C8.64625 8.28928 8.64694 8.28856 9.17861 8.79354L8.64695 8.28855L8.93376 7.98659C9.3793 7.51752 9.44403 6.72314 9.02189 6.12607L7.7609 4.34259Z" fill="#374151"/>
<path d="M13.2595 1.88008C13.3257 1.47119 13.7122 1.19381 14.1211 1.26001C14.1464 1.26485 14.2279 1.28007 14.2705 1.28958C14.3559 1.30858 14.4749 1.33784 14.6233 1.38106C14.9201 1.46751 15.3347 1.60991 15.8323 1.83805C16.8286 2.2948 18.1544 3.09381 19.5302 4.46961C20.906 5.84541 21.705 7.17122 22.1617 8.1675C22.3899 8.66511 22.5323 9.07972 22.6187 9.3765C22.6619 9.5249 22.6912 9.64393 22.7102 9.72926C22.7197 9.77193 22.7267 9.80619 22.7315 9.8315L22.7373 9.86269C22.8034 10.2716 22.5286 10.6741 22.1197 10.7403C21.712 10.8063 21.3279 10.5303 21.2601 10.1233C21.258 10.1124 21.2522 10.083 21.2461 10.0553C21.2337 9.99994 21.2124 9.91212 21.1786 9.79597C21.1109 9.56363 20.9934 9.2183 20.7982 8.79262C20.4084 7.94232 19.7074 6.76813 18.4695 5.53027C17.2317 4.2924 16.0575 3.59141 15.2072 3.20158C14.7815 3.00642 14.4362 2.88889 14.2038 2.82122C14.0877 2.78739 13.9417 2.75387 13.8863 2.74154C13.4793 2.67372 13.1935 2.2878 13.2595 1.88008Z" fill="#374151"/>
<path fill-rule="evenodd" clip-rule="evenodd" d="M13.4861 5.32955C13.5999 4.93128 14.015 4.70066 14.4133 4.81445L14.2072 5.53559C14.4133 4.81445 14.4136 4.81455 14.414 4.81465L14.4147 4.81486L14.4162 4.81531L14.4196 4.81628L14.4273 4.81859L14.4471 4.82476C14.4622 4.82958 14.481 4.83586 14.5035 4.84383C14.5484 4.85976 14.6077 4.88243 14.6805 4.91363C14.8262 4.97607 15.0253 5.07249 15.2698 5.2172C15.7593 5.50688 16.4275 5.98806 17.2124 6.77303C17.9974 7.558 18.4786 8.22619 18.7683 8.71565C18.913 8.96016 19.0094 9.15923 19.0718 9.30491C19.103 9.37772 19.1257 9.43708 19.1416 9.48199C19.1496 9.50444 19.1559 9.52327 19.1607 9.53835L19.1669 9.55814L19.1692 9.56589L19.1702 9.56922L19.1706 9.57075L19.1708 9.57148C19.1709 9.57184 19.171 9.57219 18.4499 9.77823L19.171 9.57219C19.2848 9.97047 19.0542 10.3856 18.6559 10.4994C18.261 10.6122 17.8496 10.3864 17.7317 9.99438L17.728 9.9836C17.7227 9.96858 17.7116 9.93899 17.6931 9.89579C17.6561 9.80946 17.589 9.66823 17.4774 9.47963C17.2544 9.10289 16.8517 8.53364 16.1518 7.83369C15.4518 7.13374 14.8826 6.73103 14.5058 6.50806C14.3172 6.39645 14.176 6.32935 14.0897 6.29235C14.0465 6.27383 14.0169 6.2628 14.0019 6.25747L13.9911 6.25377C13.599 6.13589 13.3733 5.72445 13.4861 5.32955Z" fill="#374151"/>
</svg>
